<mxfile host="app.diagrams.net" agent="Mozilla/5.0 (Windows NT 10.0; Win64; x64) AppleWebKit/537.36 (KHTML, like Gecko) Chrome/136.0.0.0 Safari/537.36" version="26.2.14">
  <diagram name="Página-1" id="fxF9T250So60SEwro1Fi">
    <mxGraphModel dx="1426" dy="785" grid="1" gridSize="10" guides="1" tooltips="1" connect="1" arrows="1" fold="1" page="1" pageScale="1" pageWidth="1200" pageHeight="1600" math="0" shadow="0">
      <root>
        <mxCell id="0" />
        <mxCell id="1" parent="0" />
        <mxCell id="uXFQCNxiD9KliblCnEWG-10" style="edgeStyle=orthogonalEdgeStyle;rounded=0;orthogonalLoop=1;jettySize=auto;html=1;entryX=0.5;entryY=0;entryDx=0;entryDy=0;" edge="1" parent="1" source="uXFQCNxiD9KliblCnEWG-1" target="uXFQCNxiD9KliblCnEWG-4">
          <mxGeometry relative="1" as="geometry" />
        </mxCell>
        <mxCell id="uXFQCNxiD9KliblCnEWG-1" value="INICIO" style="ellipse;whiteSpace=wrap;html=1;aspect=fixed;" vertex="1" parent="1">
          <mxGeometry x="80" y="70" width="80" height="80" as="geometry" />
        </mxCell>
        <mxCell id="uXFQCNxiD9KliblCnEWG-11" style="edgeStyle=orthogonalEdgeStyle;rounded=0;orthogonalLoop=1;jettySize=auto;html=1;entryX=0.5;entryY=0;entryDx=0;entryDy=0;" edge="1" parent="1" source="uXFQCNxiD9KliblCnEWG-4" target="uXFQCNxiD9KliblCnEWG-5">
          <mxGeometry relative="1" as="geometry" />
        </mxCell>
        <mxCell id="uXFQCNxiD9KliblCnEWG-4" value="Carga inicial de la pagina" style="rounded=1;whiteSpace=wrap;html=1;" vertex="1" parent="1">
          <mxGeometry x="60" y="200" width="120" height="60" as="geometry" />
        </mxCell>
        <mxCell id="uXFQCNxiD9KliblCnEWG-12" style="edgeStyle=orthogonalEdgeStyle;rounded=0;orthogonalLoop=1;jettySize=auto;html=1;exitX=0.5;exitY=1;exitDx=0;exitDy=0;entryX=0.5;entryY=0;entryDx=0;entryDy=0;" edge="1" parent="1" source="uXFQCNxiD9KliblCnEWG-5" target="uXFQCNxiD9KliblCnEWG-6">
          <mxGeometry relative="1" as="geometry" />
        </mxCell>
        <mxCell id="uXFQCNxiD9KliblCnEWG-5" value="Verificar estado del servidor" style="rounded=1;whiteSpace=wrap;html=1;" vertex="1" parent="1">
          <mxGeometry x="60" y="310" width="120" height="60" as="geometry" />
        </mxCell>
        <mxCell id="uXFQCNxiD9KliblCnEWG-13" style="edgeStyle=orthogonalEdgeStyle;rounded=0;orthogonalLoop=1;jettySize=auto;html=1;exitX=0.5;exitY=1;exitDx=0;exitDy=0;" edge="1" parent="1" source="uXFQCNxiD9KliblCnEWG-6" target="uXFQCNxiD9KliblCnEWG-7">
          <mxGeometry relative="1" as="geometry" />
        </mxCell>
        <mxCell id="uXFQCNxiD9KliblCnEWG-15" style="edgeStyle=orthogonalEdgeStyle;rounded=0;orthogonalLoop=1;jettySize=auto;html=1;entryX=0;entryY=0.5;entryDx=0;entryDy=0;" edge="1" parent="1" source="uXFQCNxiD9KliblCnEWG-6" target="uXFQCNxiD9KliblCnEWG-9">
          <mxGeometry relative="1" as="geometry" />
        </mxCell>
        <mxCell id="uXFQCNxiD9KliblCnEWG-6" value="Servidor disponible" style="rhombus;whiteSpace=wrap;html=1;" vertex="1" parent="1">
          <mxGeometry x="80" y="430" width="80" height="80" as="geometry" />
        </mxCell>
        <mxCell id="uXFQCNxiD9KliblCnEWG-14" style="edgeStyle=orthogonalEdgeStyle;rounded=0;orthogonalLoop=1;jettySize=auto;html=1;entryX=0.5;entryY=0;entryDx=0;entryDy=0;" edge="1" parent="1" source="uXFQCNxiD9KliblCnEWG-7" target="uXFQCNxiD9KliblCnEWG-8">
          <mxGeometry relative="1" as="geometry" />
        </mxCell>
        <mxCell id="uXFQCNxiD9KliblCnEWG-7" value="Mostrar pagina de mantenimiento" style="rounded=1;whiteSpace=wrap;html=1;" vertex="1" parent="1">
          <mxGeometry x="60" y="570" width="120" height="60" as="geometry" />
        </mxCell>
        <mxCell id="uXFQCNxiD9KliblCnEWG-8" value="Intentar reconexión automatica" style="rounded=1;whiteSpace=wrap;html=1;" vertex="1" parent="1">
          <mxGeometry x="60" y="690" width="120" height="60" as="geometry" />
        </mxCell>
        <mxCell id="uXFQCNxiD9KliblCnEWG-9" value="Cargar interfaz principal" style="rounded=1;whiteSpace=wrap;html=1;" vertex="1" parent="1">
          <mxGeometry x="240" y="440" width="120" height="60" as="geometry" />
        </mxCell>
      </root>
    </mxGraphModel>
  </diagram>
</mxfile>
